<svg width="253" height="139" viewBox="0 0 253 139" fill="none" xmlns="http://www.w3.org/2000/svg">
<path d="M93.4716 58.8695C93.1477 56.4575 91.2045 54.9661 87.8977 54.9661C84.5483 54.9661 82.3409 56.5172 82.3494 59.0399C82.3409 61.0002 83.5767 62.27 86.1335 62.7814L88.4006 63.2331C89.5426 63.4632 90.0625 63.8808 90.0795 64.5371C90.0625 65.3127 89.2188 65.8666 87.9489 65.8666C86.6534 65.8666 85.7926 65.3127 85.571 64.2473L82 64.4348C82.3409 66.9405 84.4716 68.4831 87.9403 68.4831C91.3324 68.4831 93.7614 66.753 93.7699 64.1706C93.7614 62.2786 92.5256 61.145 89.9858 60.6252L87.6165 60.1479C86.3977 59.8837 85.946 59.4661 85.9545 58.8354C85.946 58.0513 86.8324 57.5399 87.9574 57.5399C89.2188 57.5399 89.9688 58.2303 90.1477 59.074L93.4716 58.8695Z" fill="#1E1E1E"/>
<path d="M96.0561 73.1365H99.6868V66.1308H99.7976C100.3 67.2218 101.4 68.4405 103.513 68.4405C106.496 68.4405 108.823 66.0797 108.823 61.699C108.823 57.199 106.394 54.9661 103.522 54.9661C101.332 54.9661 100.283 56.27 99.7976 57.3354H99.6357V55.1365H96.0561V73.1365ZM99.6101 61.682C99.6101 59.3467 100.599 57.8553 102.363 57.8553C104.161 57.8553 105.116 59.4149 105.116 61.682C105.116 63.9661 104.144 65.5513 102.363 65.5513C100.616 65.5513 99.6101 64.0172 99.6101 61.682Z" fill="#1E1E1E"/>
<path d="M114.977 68.4746C116.911 68.4746 118.164 67.6308 118.803 66.4121H118.906V68.2274H122.349V59.3979C122.349 56.2786 119.707 54.9661 116.792 54.9661C113.656 54.9661 111.593 56.4661 111.09 58.8524L114.448 59.1252C114.695 58.2558 115.471 57.6166 116.775 57.6166C118.011 57.6166 118.718 58.2388 118.718 59.3127V59.3638C118.718 60.2075 117.823 60.3183 115.548 60.5399C112.957 60.7786 110.63 61.6479 110.63 64.5712C110.63 67.1621 112.479 68.4746 114.977 68.4746ZM116.016 65.9689C114.9 65.9689 114.099 65.449 114.099 64.4519C114.099 63.4291 114.942 62.9263 116.221 62.7473C117.013 62.6365 118.309 62.449 118.744 62.1592V63.5485C118.744 64.9206 117.61 65.9689 116.016 65.9689Z" fill="#1E1E1E"/>
<path d="M131.08 68.4831C134.566 68.4831 136.756 66.4377 136.927 63.4291H133.501C133.288 64.8269 132.367 65.611 131.123 65.611C129.427 65.611 128.327 64.1877 128.327 61.682C128.327 59.2104 129.435 57.7956 131.123 57.7956C132.452 57.7956 133.305 58.6735 133.501 59.9774H136.927C136.773 56.9519 134.481 54.9661 131.063 54.9661C127.092 54.9661 124.637 57.7189 124.637 61.7331C124.637 65.7132 127.049 68.4831 131.08 68.4831Z" fill="#1E1E1E"/>
<path d="M145.217 68.4831C148.456 68.4831 150.638 66.9064 151.149 64.4774L147.791 64.2558C147.425 65.253 146.487 65.7729 145.277 65.7729C143.462 65.7729 142.311 64.5712 142.311 62.6195V62.611H151.226V61.6138C151.226 57.1649 148.533 54.9661 145.072 54.9661C141.22 54.9661 138.723 57.7019 138.723 61.7416C138.723 65.8922 141.186 68.4831 145.217 68.4831ZM142.311 60.361C142.388 58.8695 143.521 57.6763 145.132 57.6763C146.709 57.6763 147.8 58.8013 147.808 60.361H142.311Z" fill="#1E1E1E"/>
<path d="M136.211 81.9829H133.748V78.8466H130.117V81.9829H128.327V84.7102H130.117V91.5284C130.1 94.0937 131.847 95.3636 134.481 95.2528C135.418 95.2187 136.083 95.0312 136.45 94.9119L135.879 92.2102C135.7 92.2443 135.316 92.3295 134.975 92.3295C134.251 92.3295 133.748 92.0568 133.748 91.0511V84.7102H136.211V81.9829Z" fill="#1E1E1E"/>
<path d="M143.63 95.321C145.565 95.321 146.817 94.4773 147.457 93.2585H147.559V95.0739H151.002V86.2443C151.002 83.125 148.36 81.8125 145.445 81.8125C142.309 81.8125 140.246 83.3125 139.744 85.6989L143.102 85.9716C143.349 85.1023 144.124 84.4631 145.428 84.4631C146.664 84.4631 147.371 85.0852 147.371 86.1591V86.2102C147.371 87.054 146.477 87.1648 144.201 87.3864C141.61 87.625 139.283 88.4943 139.283 91.4176C139.283 94.0085 141.133 95.321 143.63 95.321ZM144.67 92.8153C143.553 92.8153 142.752 92.2955 142.752 91.2983C142.752 90.2756 143.596 89.7727 144.874 89.5937C145.667 89.4829 146.962 89.2954 147.397 89.0057V90.3949C147.397 91.767 146.263 92.8153 144.67 92.8153Z" fill="#1E1E1E"/>
<path d="M177.283 82.4091H174.283L170.783 87.642V82.4091H168.257V95.5H170.783V91.0511L174.283 95.3295H177.283L173.283 89.0057L177.283 82.4091Z" fill="#1E1E1E"/>
<path d="M165.485 85.8864C165.161 83.4744 163.218 81.9829 159.911 81.9829C156.562 81.9829 154.354 83.5341 154.363 86.0568C154.354 88.017 155.59 89.2869 158.147 89.7983L160.414 90.25C161.556 90.4801 162.076 90.8977 162.093 91.554C162.076 92.3295 161.232 92.8835 159.962 92.8835C158.667 92.8835 157.806 92.3295 157.584 91.2642L154.013 91.4517C154.354 93.9574 156.485 95.5 159.954 95.5C163.346 95.5 165.775 93.7699 165.783 91.1875C165.775 89.2955 164.539 88.1619 161.999 87.642L159.63 87.1648C158.411 86.9006 157.96 86.483 157.968 85.8523C157.96 85.0682 158.846 84.5568 159.971 84.5568C161.232 84.5568 161.982 85.2472 162.161 86.0909L165.485 85.8864Z" fill="#1E1E1E"/>
<path d="M69.6636 49.3248L59.7826 60.8293L69.6636 72.3318L72 68.6546L65.3415 60.8273L72 53L69.6636 49.3248ZM186.388 97.6977H190.725L197.619 75.1773H193.281L186.388 97.6977ZM203.119 75.1772L200.783 78.8544L207.441 86.6817L200.783 94.509L203.119 98.1862L213 86.6837L203.119 75.1772Z" fill="#3FFFA3"/>
<path d="M105 91C109.267 91 112.967 87.4184 113 82.9665C112.967 78.5816 109.267 75 105 75C100.6 75 96.9669 78.5816 97.0002 82.9665C96.9669 87.4184 100.6 91 105 91Z" fill="#3FFFA3"/>
<path d="M109.623 82.1237C110.299 82.5126 110.29 83.4918 109.606 83.8672L103.533 87.2012C102.863 87.5692 102.044 87.0793 102.052 86.3148L102.119 79.5279C102.126 78.7634 102.954 78.2898 103.617 78.6708L109.623 82.1237Z" fill="#1E1E1E"/>
<rect x="40" y="8" width="34.0156" height="26" rx="2" fill="#404040"/>
<rect x="40.5" y="8.5" width="33.0156" height="25" rx="1.5" stroke="black" stroke-opacity="0.14902"/>
<path d="M44.9688 24V16H45.9375V23.1406H49.6563V24H44.9688ZM53.4688 24.125C52.9271 24.125 52.4518 23.9961 52.043 23.7383C51.6367 23.4805 51.319 23.1198 51.0898 22.6562C50.8633 22.1927 50.75 21.651 50.75 21.0312C50.75 20.4062 50.8633 19.8607 51.0898 19.3945C51.319 18.9284 51.6367 18.5664 52.043 18.3086C52.4518 18.0508 52.9271 17.9219 53.4688 17.9219C54.0104 17.9219 54.4844 18.0508 54.8906 18.3086C55.2995 18.5664 55.6172 18.9284 55.8438 19.3945C56.0729 19.8607 56.1875 20.4062 56.1875 21.0312C56.1875 21.651 56.0729 22.1927 55.8438 22.6562C55.6172 23.1198 55.2995 23.4805 54.8906 23.7383C54.4844 23.9961 54.0104 24.125 53.4688 24.125ZM53.4688 23.2969C53.8802 23.2969 54.2187 23.1914 54.4844 22.9805C54.75 22.7695 54.9466 22.4922 55.0742 22.1484C55.2018 21.8047 55.2656 21.4323 55.2656 21.0312C55.2656 20.6302 55.2018 20.2565 55.0742 19.9102C54.9466 19.5638 54.75 19.2839 54.4844 19.0703C54.2187 18.8568 53.8802 18.75 53.4688 18.75C53.0573 18.75 52.7188 18.8568 52.4531 19.0703C52.1875 19.2839 51.9909 19.5638 51.8633 19.9102C51.7357 20.2565 51.6719 20.6302 51.6719 21.0312C51.6719 21.4323 51.7357 21.8047 51.8633 22.1484C51.9909 22.4922 52.1875 22.7695 52.4531 22.9805C52.7188 23.1914 53.0573 23.2969 53.4688 23.2969ZM60.0166 26.375C59.5713 26.375 59.1885 26.3177 58.8682 26.2031C58.5479 26.0911 58.2809 25.9427 58.0674 25.7578C57.8564 25.5755 57.6885 25.3802 57.5635 25.1719L58.2979 24.6563C58.3812 24.7656 58.4867 24.8906 58.6143 25.0312C58.7419 25.1745 58.9163 25.2982 59.1377 25.4023C59.3617 25.5091 59.6546 25.5625 60.0166 25.5625C60.501 25.5625 60.9007 25.4453 61.2158 25.2109C61.5309 24.9766 61.6885 24.6094 61.6885 24.1094V22.8906H61.6104C61.5426 23 61.4463 23.1354 61.3213 23.2969C61.1989 23.4557 61.0218 23.5977 60.79 23.7227C60.5609 23.8451 60.251 23.9062 59.8604 23.9062C59.376 23.9062 58.9411 23.7917 58.5557 23.5625C58.1729 23.3333 57.8695 23 57.6455 22.5625C57.4242 22.125 57.3135 21.5937 57.3135 20.9687C57.3135 20.3542 57.4215 19.819 57.6377 19.3633C57.8538 18.9049 58.1546 18.5508 58.54 18.3008C58.9255 18.0482 59.3708 17.9219 59.876 17.9219C60.2666 17.9219 60.5765 17.987 60.8057 18.1172C61.0374 18.2448 61.2145 18.3906 61.3369 18.5547C61.4619 18.7161 61.5583 18.849 61.626 18.9531H61.7197V18H62.6104V24.1719C62.6104 24.6875 62.4932 25.1068 62.2588 25.4297C62.027 25.7552 61.7145 25.9935 61.3213 26.1445C60.9307 26.2982 60.4958 26.375 60.0166 26.375ZM59.9854 23.0781C60.3551 23.0781 60.6676 22.9935 60.9229 22.8242C61.1781 22.6549 61.3721 22.4115 61.5049 22.0938C61.6377 21.776 61.7041 21.3958 61.7041 20.9531C61.7041 20.5208 61.639 20.1393 61.5088 19.8086C61.3786 19.4779 61.1859 19.2187 60.9307 19.0312C60.6755 18.8437 60.3604 18.75 59.9854 18.75C59.5947 18.75 59.2692 18.849 59.0088 19.0469C58.751 19.2448 58.557 19.5104 58.4268 19.8438C58.2992 20.1771 58.2354 20.5469 58.2354 20.9531C58.2354 21.3698 58.3005 21.7383 58.4307 22.0586C58.5635 22.3763 58.7588 22.6263 59.0166 22.8086C59.277 22.9883 59.5999 23.0781 59.9854 23.0781ZM66.7354 24.125C66.1937 24.125 65.7184 23.9961 65.3096 23.7383C64.9033 23.4805 64.5856 23.1198 64.3564 22.6562C64.1299 22.1927 64.0166 21.651 64.0166 21.0312C64.0166 20.4062 64.1299 19.8607 64.3564 19.3945C64.5856 18.9284 64.9033 18.5664 65.3096 18.3086C65.7184 18.0508 66.1937 17.9219 66.7354 17.9219C67.277 17.9219 67.751 18.0508 68.1572 18.3086C68.5661 18.5664 68.8838 18.9284 69.1104 19.3945C69.3395 19.8607 69.4541 20.4062 69.4541 21.0312C69.4541 21.651 69.3395 22.1927 69.1104 22.6562C68.8838 23.1198 68.5661 23.4805 68.1572 23.7383C67.751 23.9961 67.277 24.125 66.7354 24.125ZM66.7354 23.2969C67.1468 23.2969 67.4854 23.1914 67.751 22.9805C68.0166 22.7695 68.2132 22.4922 68.3408 22.1484C68.4684 21.8047 68.5322 21.4323 68.5322 21.0312C68.5322 20.6302 68.4684 20.2565 68.3408 19.9102C68.2132 19.5638 68.0166 19.2839 67.751 19.0703C67.4854 18.8568 67.1468 18.75 66.7354 18.75C66.3239 18.75 65.9854 18.8568 65.7197 19.0703C65.4541 19.2839 65.2575 19.5638 65.1299 19.9102C65.0023 20.2565 64.9385 20.6302 64.9385 21.0312C64.9385 21.4323 65.0023 21.8047 65.1299 22.1484C65.2575 22.4922 65.4541 22.7695 65.7197 22.9805C65.9854 23.1914 66.3239 23.2969 66.7354 23.2969Z" fill="white"/>
</svg>
